<svg xmlns="http://www.w3.org/2000/svg" viewBox="66.6 210.6 397.984 327.96" width="512" height="512">
  <path d="M242.28 400.68H122.76c2.16 28.8 18.72 45.72 43.56 45.72 29.88 0 60.48 -16.92 60.48 -16.92l15.48 29.88s-36 30.24 -82.08 30.24c-61.92 0 -93.6 -36 -93.6 -97.2 0 -63 35.64 -104.4 96.12 -104.4 53.64 0 81.72 33.12 81.72 84.6 0 13.68 -2.16 27 -2.16 28.08zm-118.8 -33.48h65.16c0 -20.52 -8.64 -36 -29.52 -36 -20.16 0 -32.76 14.76 -35.64 36zm239.584 171.36v-48.6c-33.12 -1.8 -61.2 -11.52 -61.2 -11.52v-63.72h33.12l5.4 27s12.24 6.48 31.32 6.48c21.6 0 40.32 -8.28 40.32 -25.56 0 -38.52 -110.16 -20.16 -110.16 -102.24 0 -37.44 25.2 -60.48 61.2 -67.32V210.6h38.52v41.04c30.96 2.52 56.16 12.96 56.16 12.96l-1.44 59.04h-30.96l-6.84 -26.64s-15.12 -5.4 -28.8 -5.4c-23.04 0 -34.92 9.72 -34.92 22.68 0 38.16 109.8 22.32 109.8 100.44 0 40.32 -25.92 65.16 -63 73.08v50.76h-38.52z" />
</svg>