<svg xmlns="http://www.w3.org/2000/svg" viewBox="11.84 37.44 70.753 58.304" width="32" height="32"><path d="M43.072 71.232H21.824c0.384 5.12 3.328 8.128 7.744 8.128 5.312 0 10.752 -3.008 10.752 -3.008l2.752 5.312s-6.4 5.376 -14.592 5.376c-11.008 0 -16.64 -6.4 -16.64 -17.28 0 -11.2 6.336 -18.56 17.088 -18.56 9.536 0 14.528 5.888 14.528 15.04 0 2.432 -0.384 4.8 -0.384 4.992zm-21.12 -5.952h11.584c0 -3.648 -1.536 -6.4 -5.248 -6.4 -3.584 0 -5.824 2.624 -6.336 6.4zm42.593 30.464v-8.64c-5.888 -0.32 -10.88 -2.048 -10.88 -2.048v-11.328h5.888l0.96 4.8s2.176 1.152 5.568 1.152c3.84 0 7.168 -1.472 7.168 -4.544 0 -6.848 -19.584 -3.584 -19.584 -18.176 0 -6.656 4.48 -10.752 10.88 -11.968V37.44h6.848v7.296c5.504 0.448 9.984 2.304 9.984 2.304l-0.256 10.496h-5.504l-1.216 -4.736s-2.688 -0.96 -5.12 -0.96c-4.096 0 -6.208 1.728 -6.208 4.032 0 6.784 19.52 3.968 19.52 17.856 0 7.168 -4.608 11.584 -11.2 12.992v9.024h-6.848z"/></svg>