<svg xmlns="http://www.w3.org/2000/svg" viewBox="18.5 58.5 110.551 91.1" width="50" height="50"><path d="M67.3 111.3H34.1c0.6 8 5.2 12.7 12.1 12.7 8.3 0 16.8 -4.7 16.8 -4.7l4.3 8.3s-10 8.4 -22.8 8.4c-17.2 0 -26 -10 -26 -27 0 -17.5 9.9 -29 26.7 -29 14.9 0 22.7 9.2 22.7 23.5 0 3.8 -0.6 7.5 -0.6 7.8zm-33 -9.3h18.1c0 -5.7 -2.4 -10 -8.2 -10 -5.6 0 -9.1 4.1 -9.9 10zm66.551 47.6v-13.5c-9.2 -0.5 -17 -3.2 -17 -3.2v-17.7h9.2l1.5 7.5s3.4 1.8 8.7 1.8c6 0 11.2 -2.3 11.2 -7.1 0 -10.7 -30.6 -5.6 -30.6 -28.4 0 -10.4 7 -16.8 17 -18.7V58.5h10.7v11.4c8.6 0.7 15.6 3.6 15.6 3.6l-0.4 16.4h-8.6l-1.9 -7.4s-4.2 -1.5 -8 -1.5c-6.4 0 -9.7 2.7 -9.7 6.3 0 10.6 30.5 6.2 30.5 27.9 0 11.2 -7.2 18.1 -17.5 20.3v14.1h-10.7z"/></svg>